SplineFontDB: 3.2
FontName: SithAF
FullName: Sith AF
FamilyName: Sith AF
Weight: Regular
Copyright: Attribution 3.0 United States (CC BY 3.0 US) by Ender Smith, AurekFonts. (This font is free to use for any personal, commercial, or other purpose, so long as you provide due attribution and a link to the full text of the license: https://creativecommons.org/licenses/by/3.0/us/legalcode)
UComments: "2020-7-5: Created with FontForge (http://fontforge.org)"
Version: 002.000
ItalicAngle: 0
UnderlinePosition: -100
UnderlineWidth: 50
Ascent: 800
Descent: 200
InvalidEm: 0
LayerCount: 2
Layer: 0 0 "Back" 1
Layer: 1 0 "Fore" 0
XUID: [1021 178 1911899458 3536]
StyleMap: 0x0000
FSType: 0
OS2Version: 0
OS2_WeightWidthSlopeOnly: 0
OS2_UseTypoMetrics: 1
CreationTime: 1593998684
ModificationTime: 1594168032
PfmFamily: 17
TTFWeight: 400
TTFWidth: 5
LineGap: 90
VLineGap: 0
OS2TypoAscent: 0
OS2TypoAOffset: 1
OS2TypoDescent: 0
OS2TypoDOffset: 1
OS2TypoLinegap: 90
OS2WinAscent: 0
OS2WinAOffset: 1
OS2WinDescent: 0
OS2WinDOffset: 1
HheadAscent: 0
HheadAOffset: 1
HheadDescent: 0
HheadDOffset: 1
OS2Vendor: 'PfEd'
Lookup: 4 0 1 "'liga' Standard Ligatures in Latin lookup 0" { "'liga' Standard Ligatures in Latin lookup 0-1"  } ['liga' ('DFLT' <'dflt' > 'latn' <'dflt' > ) ]
MarkAttachClasses: 1
DEI: 91125
LangName: 1033 "" "" "" "SithAF:Regular" "" "" "" "" "" "" "" "" "" "Attribution 3.0 United States (CC BY 3.0 US) by Ender Smith, AurekFonts" "https://creativecommons.org/licenses/by/3.0/us/legalcode"
Encoding: ISO8859-1
UnicodeInterp: none
NameList: AGL For New Fonts
DisplaySize: -72
AntiAlias: 1
FitToEm: 0
WinInfo: 25 25 10
BeginPrivate: 0
EndPrivate
TeXData: 1 0 0 335544 167772 111848 733196 1048576 111848 783286 444596 497025 792723 393216 433062 380633 303038 157286 324010 404750 52429 2506097 1059062 262144
BeginChars: 509 312

StartChar: A
Encoding: 65 65 0
Width: 332
VWidth: 900
Flags: W
HStem: 652.15 47.0801<103.56 268.489>
VStem: 80 212.05
LayerCount: 2
Fore
SplineSet
80 652.150390625 m 1
 103.559570312 699.23046875 l 1
 292.049804688 699.23046875 l 1
 268.489257812 652.150390625 l 1
 80 652.150390625 l 1
EndSplineSet
Validated: 1
EndChar

StartChar: M
Encoding: 77 77 3
Width: 308
Flags: W
HStem: 0 21G<88.5244 130.375> 776.83 47.0801<150.68 196.136>
VStem: 80 58.8994<0 776.83> 209.59 58.8994<553.199 762.311>
LayerCount: 2
Fore
SplineSet
80 776.830078125 m 1
 150.6796875 823.91015625 l 1
 215.75 823.91015625 268.489257812 771.209960938 268.489257812 706.209960938 c 2
 268.489257812 564.969726562 l 2
 268.489257812 558.469726562 263.209960938 553.19921875 256.709960938 553.19921875 c 2
 221.370117188 553.19921875 l 2
 214.859375 553.19921875 209.58984375 558.469726562 209.58984375 564.969726562 c 2
 209.58984375 717.979492188 l 2
 209.58984375 750.479492188 183.209960938 776.830078125 150.6796875 776.830078125 c 2
 138.899414062 776.830078125 l 1
 138.899414062 11.76953125 l 2
 138.899414062 5.26953125 133.629882812 0 127.120117188 0 c 2
 91.779296875 0 l 2
 85.26953125 0 80 5.26953125 80 11.76953125 c 2
 80 776.830078125 l 1
EndSplineSet
Validated: 1
EndChar

StartChar: D
Encoding: 68 68 5
Width: 544
Flags: W
HStem: 0 21G<253.455 295.305> 541.43 47.0801<103.56 244.93 303.83 409.85> 756.83 20G<253.455 322.736> 756.83 20G<253.455 322.736>
VStem: 244.93 58.9004<0 541.43 588.51 694.439>
LayerCount: 2
Fore
SplineSet
303.830078125 11.76953125 m 2xe8
 303.830078125 5.26953125 298.559570312 0 292.049804688 0 c 2
 256.709960938 0 l 2
 250.200195312 0 244.9296875 5.26953125 244.9296875 11.76953125 c 2
 244.9296875 541.4296875 l 1
 80 541.4296875 l 1
 103.559570312 588.509765625 l 1
 244.9296875 588.509765625 l 1
 244.9296875 765.059570312 l 2
 244.9296875 771.559570312 250.200195312 776.830078125 256.709960938 776.830078125 c 2
 303.830078125 776.830078125 l 1
 504.099609375 564.969726562 l 1
 456.979492188 541.4296875 l 1
 303.830078125 541.4296875 l 1
 303.830078125 11.76953125 l 2xe8
303.830078125 694.439453125 m 1
 303.830078125 588.509765625 l 1
 409.849609375 588.509765625 l 1
 303.830078125 694.439453125 l 1
EndSplineSet
Validated: 1
EndChar

StartChar: I
Encoding: 73 73 6
Width: 308
VWidth: 900
Flags: W
HStem: 557.99 21G<138.899 207.818> 652.15 47.0801<103.56 186.02>
VStem: 80 188.489
LayerCount: 2
Fore
SplineSet
103.559570312 699.23046875 m 1
 268.489257812 699.23046875 l 1
 197.809570312 557.990234375 l 1
 138.899414062 557.990234375 l 1
 186.01953125 652.150390625 l 1
 80 652.150390625 l 1
 103.559570312 699.23046875 l 1
EndSplineSet
Validated: 1
EndChar

StartChar: K
Encoding: 75 75 9
Width: 379
Flags: W
HStem: 0 21G<88.5244 157.805> 292.81 36.7598<251.375 264.16> 756.83 20G<88.5244 130.375> 756.83 20G<88.5244 130.375>
VStem: 80 58.8994<82.3896 776.83>
LayerCount: 2
Fore
SplineSet
138.899414062 82.3896484375 m 1xe8
 256.709960938 200.08984375 l 1
 213.870117188 236.469726562 l 1
 189.200195312 267.359375 196.189453125 309.299804688 243.709960938 327.379882812 c 1
 268.489257812 329.569335938 l 1
 303.830078125 306.029296875 l 1
 264.16015625 292.809570312 l 2
 248.899414062 287.729492188 246.629882812 262.219726562 260.25 253.01953125 c 2
 292.049804688 235.399414062 l 1
 339.169921875 211.859375 l 1
 138.899414062 0 l 1
 91.779296875 0 l 2
 85.26953125 0 80 5.26953125 80 11.76953125 c 2
 80 765.059570312 l 2
 80 771.559570312 85.26953125 776.830078125 91.779296875 776.830078125 c 2
 127.120117188 776.830078125 l 2
 133.629882812 776.830078125 138.899414062 771.559570312 138.899414062 765.059570312 c 2
 138.899414062 82.3896484375 l 1xe8
EndSplineSet
Validated: 33
EndChar

StartChar: H
Encoding: 72 72 11
Width: 178
Flags: W
HStem: 0 21G<88.5244 130.375> 756.83 20G<88.5244 130.375> 756.83 20G<88.5244 130.375>
VStem: 80 58.8994<0 776.83>
LayerCount: 2
Fore
SplineSet
80 11.76953125 m 2xd0
 80 765.059570312 l 2
 80 771.559570312 85.26953125 776.830078125 91.779296875 776.830078125 c 2
 127.120117188 776.830078125 l 2
 133.629882812 776.830078125 138.899414062 771.559570312 138.899414062 765.059570312 c 2
 138.899414062 11.76953125 l 2
 138.899414062 5.26953125 133.629882812 0 127.120117188 0 c 2
 91.779296875 0 l 2
 85.26953125 0 80 5.26953125 80 11.76953125 c 2xd0
EndSplineSet
Validated: 1
EndChar

StartChar: J
Encoding: 74 74 12
Width: 426
Flags: W
HStem: 756.761 20G<88.5244 130.38> 756.761 20G<88.5244 130.38>
VStem: 80 59.4395<73.1904 776.761> 256.71 58.8994<-141.31 95.6515>
LayerCount: 2
Fore
SplineSet
80 764.990234375 m 2xb0
 80 771.490234375 85.26953125 776.760742188 91.779296875 776.760742188 c 2
 127.129882812 776.760742188 l 2
 133.629882812 776.760742188 138.91015625 771.5 138.91015625 765 c 2
 139.439453125 73.1904296875 l 1
 186.549804688 134.080078125 l 2
 214.729492188 174.760742188 311.419921875 158.419921875 315.469726562 105.8203125 c 1
 315.609375 -141.309570312 l 1
 362.729492188 -106 l 1
 386.290039062 -141.309570312 l 1
 256.709960938 -235.469726562 l 1
 257.309570312 46.6005859375 l 2
 258.799804688 107.990234375 210.51953125 105.41015625 198.76953125 86.330078125 c 2
 138.849609375 0 l 1
 91.19921875 -0.2607421875 l 2
 84.6591796875 -0.30078125 80 5.240234375 80 11.7705078125 c 2
 80 764.990234375 l 2xb0
EndSplineSet
Validated: 33
EndChar

StartChar: N
Encoding: 78 78 14
Width: 355
Flags: W
HStem: 0 21G<88.5244 130.375> 364.88 47.0801<268.489 292.05> 776.83 47.0801<150.68 196.136>
VStem: 80 58.8994<0 776.83> 209.59 58.8994<411.96 762.311>
LayerCount: 2
Fore
SplineSet
80 776.830078125 m 1
 150.6796875 823.91015625 l 1
 215.75 823.91015625 268.489257812 771.209960938 268.489257812 706.209960938 c 2
 268.489257812 411.959960938 l 1
 315.609375 411.959960938 l 1
 292.049804688 364.879882812 l 1
 221.370117188 364.879882812 l 2
 214.859375 364.879882812 209.58984375 370.149414062 209.58984375 376.649414062 c 2
 209.58984375 717.979492188 l 2
 209.58984375 750.479492188 183.209960938 776.830078125 150.6796875 776.830078125 c 2
 138.899414062 776.830078125 l 1
 138.899414062 11.76953125 l 2
 138.899414062 5.26953125 133.629882812 0 127.120117188 0 c 2
 91.779296875 0 l 2
 85.26953125 0 80 5.26953125 80 11.76953125 c 2
 80 776.830078125 l 1
EndSplineSet
Validated: 1
EndChar

StartChar: O
Encoding: 79 79 15
Width: 308
VWidth: 900
Flags: W
HStem: 534.45 164.78 679.23 20G<91.4382 137.12 211.37 268.489>
VStem: 80 188.489
LayerCount: 2
Fore
SplineSet
80 699.23046875 m 1x60
 137.120117188 699.23046875 l 1
 174.239257812 626.83984375 l 1
 173.969726562 626.759765625 211.370117188 699.23046875 211.370117188 699.23046875 c 1
 268.489257812 699.23046875 l 1x60
 174.239257812 534.450195312 l 1xa0
 80 699.23046875 l 1x60
EndSplineSet
Validated: 37
EndChar

StartChar: Q
Encoding: 81 81 17
Width: 390
Flags: W
HStem: 0 21G<88.5244 157.805> 756.83 20G<88.5244 130.375> 756.83 20G<88.5244 130.375>
VStem: 80 58.8994<82.3896 776.83> 256.71 35.3398<91.282 124.6>
LayerCount: 2
Fore
SplineSet
138.899414062 82.3896484375 m 1xd8
 292.049804688 235.399414062 l 1
 339.169921875 211.859375 l 1
 311.309570312 182.389648438 l 2
 301.25 168.290039062 292.26953125 150.009765625 292.049804688 129.469726562 c 0
 291.540039062 82.349609375 350.950195312 70.619140625 350.950195312 70.619140625 c 1
 292.049804688 70.619140625 l 1
 292.049804688 70.619140625 256.849609375 82.4296875 256.709960938 117.69921875 c 0
 256.700195312 120.239257812 256.689453125 122.529296875 256.6796875 124.599609375 c 1
 138.899414062 0 l 1
 91.779296875 0 l 2
 85.26953125 0 80 5.26953125 80 11.76953125 c 2
 80 765.059570312 l 2
 80 771.559570312 85.26953125 776.830078125 91.779296875 776.830078125 c 2
 127.120117188 776.830078125 l 2
 133.629882812 776.830078125 138.899414062 771.559570312 138.899414062 765.059570312 c 2
 138.899414062 82.3896484375 l 1xd8
EndSplineSet
Validated: 33
EndChar

StartChar: R
Encoding: 82 82 18
Width: 208
Flags: W
HStem: -188.32 47.0801<3.55957 96.136> 756.83 20G<118.115 159.96> 756.83 20G<118.115 159.96>
VStem: 109.59 58.8994<-126.721 776.83>
LayerCount: 2
Fore
SplineSet
109.58984375 765.059570312 m 2xd0
 109.58984375 771.559570312 114.859375 776.830078125 121.370117188 776.830078125 c 2
 156.709960938 776.830078125 l 2
 163.209960938 776.830078125 168.489257812 771.559570312 168.489257812 765.059570312 c 2
 168.489257812 -70.6201171875 l 2
 168.489257812 -135.620117188 115.75 -188.3203125 50.6796875 -188.3203125 c 2
 -20 -188.3203125 l 1
 3.5595703125 -141.240234375 l 1
 50.6796875 -141.240234375 l 2
 83.2099609375 -141.240234375 109.58984375 -114.890625 109.58984375 -82.390625 c 2
 109.58984375 765.059570312 l 2xd0
EndSplineSet
Validated: 1
EndChar

StartChar: S
Encoding: 83 83 19
Width: 379
Flags: W
HStem: 0 21G<88.5244 130.375> 447.27 36.75<251.375 264.16> 756.83 20G<88.5244 138.899> 756.83 20G<88.5244 138.899>
VStem: 80 58.8994<0 694.439>
LayerCount: 2
Fore
SplineSet
138.899414062 11.76953125 m 2xe8
 138.899414062 5.26953125 133.629882812 0 127.120117188 0 c 2
 91.779296875 0 l 2
 85.26953125 0 80 5.26953125 80 11.76953125 c 2
 80 765.059570312 l 2
 80 771.559570312 85.26953125 776.830078125 91.779296875 776.830078125 c 2
 138.899414062 776.830078125 l 1
 138.899414062 776.830078124 l 1
 339.169921875 564.969726562 l 1
 292.049804688 541.4296875 l 1
 260.25 523.809570312 l 2
 246.629882812 514.619140625 248.899414062 489.099609375 264.16015625 484.01953125 c 2
 303.830078125 470.809570312 l 1
 268.489257812 447.26953125 l 1
 243.709960938 449.44921875 l 1
 196.189453125 467.540039062 189.200195312 509.469726562 213.870117188 540.359375 c 1
 256.709960938 576.739257812 l 1
 138.899414062 694.439453125 l 1
 138.899414062 11.76953125 l 2xe8
EndSplineSet
Validated: 33
EndChar

StartChar: T
Encoding: 84 84 20
Width: 379
Flags: W
HStem: 0 21G<88.5244 130.375> 756.83 20G<88.5244 157.805> 756.83 20G<88.5244 157.805>
VStem: 80 58.8994<0 694.439>
LayerCount: 2
Fore
SplineSet
138.899414062 11.76953125 m 6xd0
 138.899414062 5.26953125 133.629882812 0 127.120117188 0 c 6
 91.779296875 0 l 6
 85.26953125 0 80 5.26953125 80 11.76953125 c 6
 80 765.059570312 l 6
 80 771.559570312 85.26953125 776.830078125 91.779296875 776.830078125 c 6
 138.899414062 776.830078125 l 5
 339.169921875 564.969726562 l 5
 292.049804688 541.4296875 l 5
 138.899414062 694.439453125 l 5
 138.899414062 11.76953125 l 6xd0
EndSplineSet
Validated: 1
EndChar

StartChar: U
Encoding: 85 85 21
Width: 261
VWidth: 900
Flags: W
HStem: 510.91 188.32 679.23 20G<162.46 201.35>
VStem: 80 141.37
LayerCount: 2
Fore
SplineSet
127.120117188 510.91015625 m 1xa0
 80 534.450195312 l 1
 176.58984375 547.280273438 164.5 601.98046875 124.319335938 617.169921875 c 1
 80 628.610351562 l 1
 162.459960938 699.23046875 l 1
 221.370117188 699.23046875 l 1x60
 162.459960938 640.379882812 l 1
 169.859375 635.950195312 l 2
 217.6796875 607.280273438 219.4296875 530.690429688 165.099609375 512.23046875 c 1
 127.120117188 510.91015625 l 1xa0
EndSplineSet
Validated: 33
EndChar

StartChar: W
Encoding: 87 87 24
Width: 261
Flags: W
HStem: 756.83 20G<88.5244 130.375> 756.83 20G<88.5244 130.375>
VStem: 80 58.8994<0 776.83>
LayerCount: 2
Fore
SplineSet
80 765.059570312 m 2xa0
 80 771.559570312 85.26953125 776.830078125 91.779296875 776.830078125 c 2
 127.120117188 776.830078125 l 2
 133.629882812 776.830078125 138.899414062 771.559570312 138.899414062 765.059570312 c 2
 138.899414062 0 l 1
 221.370117188 -70.6201171875 l 1
 177.049804688 -82.060546875 l 1
 136.870117188 -97.25 124.779296875 -151.950195312 221.370117188 -164.780273438 c 1
 174.239257812 -188.3203125 l 1
 136.26953125 -187 l 1
 81.9296875 -168.540039062 83.6796875 -91.9501953125 131.509765625 -63.2802734375 c 2
 138.899414062 -58.8505859375 l 1
 80 0 l 1
 80 765.059570312 l 2xa0
EndSplineSet
Validated: 33
EndChar

StartChar: Y
Encoding: 89 89 25
Width: 532
Flags: W
HStem: 756.83 20G<147.43 189.274> 756.83 20G<147.43 189.274>
VStem: 138.899 58.7705<0 776.83>
LayerCount: 2
Fore
SplineSet
138.899414062 765.059570312 m 2xa0
 138.899414062 771.559570312 144.1796875 776.830078125 150.6796875 776.830078125 c 2
 186.01953125 776.830078125 l 2
 192.529296875 776.830078125 197.809570312 771.559570312 197.809570312 765.059570312 c 2
 197.669921875 -34.98046875 l 1
 222.700195312 -55.9501953125 319.75 -98.650390625 398.529296875 -26.560546875 c 1
 433.419921875 11.76953125 l 1
 492.319335938 11.76953125 l 1
 404.559570312 -163.350585938 148.700195312 -127.30078125 92.75 -32.41015625 c 1
 80 0 l 1
 138.899414062 0 l 1
 138.899414062 765.059570312 l 2xa0
EndSplineSet
Validated: 33
EndChar

StartChar: Z
Encoding: 90 90 26
Width: 367
Flags: W
HStem: 0 21G<88.5244 130.375> 956.921 20G<249.649 327.39>
VStem: 80 58.8994<0 776.83>
LayerCount: 2
Fore
SplineSet
80 776.830078125 m 1
 268.489257812 976.920898438 l 1
 327.389648438 976.920898438 l 1
 138.899414062 776.830078125 l 1
 138.899414062 11.7705078125 l 2
 138.899414062 5.2705078125 133.629882812 0 127.120117188 0 c 2
 91.779296875 0 l 2
 85.26953125 0 80 5.2705078125 80 11.7705078125 c 2
 80 776.830078125 l 1
EndSplineSet
Validated: 1
EndChar

StartChar: A_I
Encoding: 257 -1 55
Width: 261
VWidth: 900
LigCaretCntFixed: 1
Flags: W
HStem: 510.91 188.32 679.23 20G<136.27 214.282>
VStem: 80 141.37
LayerCount: 2
Fore
SplineSet
174.239257812 699.23046875 m 1x60
 221.370117188 675.690429688 l 1
 124.779296875 662.860351562 136.870117188 608.16015625 177.049804688 592.969726562 c 1
 221.370117188 581.530273438 l 1
 138.899414062 510.91015625 l 1
 80 510.91015625 l 1xa0
 138.899414062 569.759765625 l 1
 131.509765625 574.190429688 l 2
 83.6796875 602.860351562 81.9296875 679.450195312 136.26953125 697.91015625 c 1
 174.239257812 699.23046875 l 1x60
EndSplineSet
Validated: 33
Ligature2: "'liga' Standard Ligatures in Latin lookup 0-1" a i
Ligature2: "'liga' Standard Ligatures in Latin lookup 0-1" A i
Ligature2: "'liga' Standard Ligatures in Latin lookup 0-1" A I
EndChar

StartChar: A_asciicircum
Encoding: 258 -1 56
Width: 178
VWidth: 900
LigCaretCntFixed: 1
Flags: W
HStem: 522.68 176.551<80 138.899>
VStem: 80 58.8994<522.68 699.23>
LayerCount: 2
Fore
SplineSet
80 687.459960938 m 2
 80 693.959960938 85.26953125 699.23046875 91.779296875 699.23046875 c 2
 127.120117188 699.23046875 l 2
 133.629882812 699.23046875 138.899414062 693.959960938 138.899414062 687.459960938 c 2
 138.899414062 534.450195312 l 2
 138.899414062 527.950195312 133.629882812 522.6796875 127.120117188 522.6796875 c 2
 91.779296875 522.6796875 l 2
 85.26953125 522.6796875 80 527.950195312 80 534.450195312 c 2
 80 687.459960938 l 2
EndSplineSet
Validated: 1
Ligature2: "'liga' Standard Ligatures in Latin lookup 0-1" A asciicircum
Ligature2: "'liga' Standard Ligatures in Latin lookup 0-1" a asciicircum
EndChar

StartChar: O_I
Encoding: 259 -1 58
Width: 320
VWidth: 900
LigCaretCntFixed: 1
Flags: W
HStem: 581.53 47.0801<186.02 197.81> 679.23 20G<80 170.701> 679.23 20G<80 170.701>
VStem: 80 200.27
LayerCount: 2
Fore
SplineSet
280.26953125 628.610351562 m 1xd0
 209.58984375 487.370117188 l 1
 150.6796875 487.370117188 l 1
 197.809570312 581.530273438 l 1
 91.779296875 581.530273438 l 1
 115.33984375 628.610351562 l 1
 127.120117188 652.150390625 l 1
 80 699.23046875 l 1
 150.6796875 699.23046875 l 1
 197.809570312 652.150390625 l 1
 186.01953125 628.610351562 l 1
 280.26953125 628.610351562 l 1xd0
EndSplineSet
Validated: 1
Ligature2: "'liga' Standard Ligatures in Latin lookup 0-1" O I
Ligature2: "'liga' Standard Ligatures in Latin lookup 0-1" O i
Ligature2: "'liga' Standard Ligatures in Latin lookup 0-1" o i
EndChar

StartChar: U_asciicircum
Encoding: 260 -1 59
Width: 308
VWidth: 900
LigCaretCntFixed: 1
Flags: W
HStem: 522.68 176.551 679.23 20G<209.59 253.809>
VStem: 80 188.489
LayerCount: 2
Fore
SplineSet
209.58984375 699.23046875 m 1x60
 268.489257812 699.23046875 l 1x60
 138.899414062 522.6796875 l 1
 80 522.6796875 l 1xa0
 209.58984375 699.23046875 l 1x60
EndSplineSet
Validated: 1
Ligature2: "'liga' Standard Ligatures in Latin lookup 0-1" U asciicircum
Ligature2: "'liga' Standard Ligatures in Latin lookup 0-1" u asciicircum
EndChar

StartChar: C_H
Encoding: 261 -1 60
Width: 379
LigCaretCntFixed: 1
Flags: W
HStem: 0 21G<88.5244 157.805> 756.83 20G<88.5244 130.375> 756.83 20G<88.5244 130.375>
VStem: 80 58.8994<82.3896 776.83>
LayerCount: 2
Fore
SplineSet
138.899414062 765.059570312 m 2xd0
 138.899414062 82.3896484375 l 1
 292.049804688 235.399414062 l 1
 339.169921875 211.859375 l 1
 138.899414062 0 l 1
 91.779296875 0 l 2
 85.26953125 0 80 5.26953125 80 11.76953125 c 2
 80 765.059570312 l 2
 80 771.559570312 85.26953125 776.830078125 91.779296875 776.830078125 c 2
 127.120117188 776.830078125 l 2
 133.629882812 776.830078125 138.899414062 771.559570312 138.899414062 765.059570312 c 2xd0
EndSplineSet
Validated: 1
Ligature2: "'liga' Standard Ligatures in Latin lookup 0-1" C H
Ligature2: "'liga' Standard Ligatures in Latin lookup 0-1" C h
Ligature2: "'liga' Standard Ligatures in Latin lookup 0-1" c h
EndChar

StartChar: D_W
Encoding: 278 -1 79
Width: 544
LigCaretCntFixed: 1
Flags: W
HStem: 541.43 47.0801<103.56 244.93 303.83 409.85> 756.83 20G<253.455 322.736> 756.83 20G<253.455 322.736>
VStem: 244.93 58.9004<0 541.43 588.51 694.439>
LayerCount: 2
Fore
SplineSet
244.9296875 541.4296875 m 1xd0
 80 541.4296875 l 1
 103.559570312 588.509765625 l 1
 244.9296875 588.509765625 l 1
 244.9296875 765.059570312 l 2
 244.9296875 771.559570312 250.200195312 776.830078125 256.709960938 776.830078125 c 2
 303.830078125 776.830078125 l 1
 504.099609375 564.969726562 l 1
 456.979492188 541.4296875 l 1
 303.830078125 541.4296875 l 1
 303.830078125 0 l 1
 386.290039062 -70.6201171875 l 1
 341.979492188 -82.060546875 l 1
 301.799804688 -97.25 289.700195312 -151.950195312 386.290039062 -164.780273438 c 1
 339.169921875 -188.3203125 l 1
 301.189453125 -187 l 1
 246.859375 -168.540039062 248.609375 -91.9501953125 296.439453125 -63.2802734375 c 2
 303.830078125 -58.8505859375 l 1
 244.9296875 0 l 1
 244.9296875 541.4296875 l 1xd0
303.830078125 694.439453125 m 1
 303.830078125 588.509765625 l 1
 409.849609375 588.509765625 l 1
 303.830078125 694.439453125 l 1
EndSplineSet
Validated: 33
Ligature2: "'liga' Standard Ligatures in Latin lookup 0-1" D W
Ligature2: "'liga' Standard Ligatures in Latin lookup 0-1" D w
Ligature2: "'liga' Standard Ligatures in Latin lookup 0-1" d w
EndChar

StartChar: D_Y
Encoding: 287 -1 88
Width: 638
LigCaretCntFixed: 1
Flags: W
HStem: 541.43 47.0801<103.56 244.899 303.83 409.85> 756.83 20G<253.43 322.736> 756.83 20G<253.43 322.736>
VStem: 244.899 58.7705<0 541.43 588.51 694.439>
LayerCount: 2
Fore
SplineSet
244.899414062 765.059570312 m 2xd0
 244.899414062 771.559570312 250.1796875 776.830078125 256.6796875 776.830078125 c 2
 303.830078125 776.830078125 l 1
 504.099609375 564.969726562 l 1
 456.979492188 541.4296875 l 1
 303.830078125 541.4296875 l 1
 303.669921875 -34.98046875 l 1
 328.700195312 -55.9501953125 425.75 -98.650390625 504.529296875 -26.560546875 c 1
 539.419921875 11.76953125 l 1
 598.319335938 11.76953125 l 1
 510.559570312 -163.350585938 254.700195312 -127.30078125 198.75 -32.41015625 c 1
 186 0 l 1
 244.899414062 0 l 1
 244.899414062 541.4296875 l 1
 80 541.4296875 l 1
 103.559570312 588.509765625 l 1
 244.899414062 588.509765625 l 1
 244.899414062 765.059570312 l 2xd0
303.830078125 694.439453125 m 1
 303.830078125 588.509765625 l 1
 409.849609375 588.509765625 l 1
 303.830078125 694.439453125 l 1
EndSplineSet
Validated: 33
Ligature2: "'liga' Standard Ligatures in Latin lookup 0-1" D Y
Ligature2: "'liga' Standard Ligatures in Latin lookup 0-1" D y
Ligature2: "'liga' Standard Ligatures in Latin lookup 0-1" d y
EndChar

StartChar: D_Z
Encoding: 296 -1 97
Width: 355
Flags: W
HStem: 0 21G<88.5244 130.375> 803.91 20G<120.654 177.98>
VStem: 80 58.8994<0 557.35 621.609 776.83>
LayerCount: 2
Fore
SplineSet
165.609375 636.620117188 m 2
 212.169921875 662.790039062 213.969726562 729.099609375 168.91015625 757.75 c 2
 138.899414062 776.830078125 l 1
 138.899414062 621.609375 l 1
 165.609375 636.620117188 l 2
138.899414062 11.76953125 m 2
 138.899414062 5.26953125 133.629882812 0 127.120117188 0 c 2
 91.779296875 0 l 2
 85.26953125 0 80 5.26953125 80 11.76953125 c 2
 80 776.830078125 l 1
 150.6796875 823.91015625 l 1
 210.359375 780.189453125 l 2
 265.379882812 739.870117188 260.620117188 656.319335938 201.389648438 622.5 c 2
 162.459960938 600.279296875 l 1
 315.609375 529.66015625 l 1
 280.26953125 482.580078125 l 1
 138.899414062 557.349609375 l 1
 138.899414062 11.76953125 l 2
EndSplineSet
Validated: 33
LCarets2: 1 0
Ligature2: "'liga' Standard Ligatures in Latin lookup 0-1" D Z
Ligature2: "'liga' Standard Ligatures in Latin lookup 0-1" D z
Ligature2: "'liga' Standard Ligatures in Latin lookup 0-1" d z
EndChar

StartChar: D_Z_W
Encoding: 305 -1 106
Width: 355
Flags: W
HStem: 803.91 20G<120.654 177.98>
VStem: 80 58.8994<0 557.35 621.609 776.83>
LayerCount: 2
Fore
SplineSet
165.609375 636.620117188 m 2
 212.169921875 662.790039062 213.969726562 729.099609375 168.91015625 757.75 c 2
 138.899414062 776.830078125 l 1
 138.899414062 621.609375 l 1
 165.609375 636.620117188 l 2
138.899414062 0 m 1
 221.370117188 -70.6201171875 l 1
 177.049804688 -82.060546875 l 1
 136.870117188 -97.25 124.779296875 -151.950195312 221.370117188 -164.780273438 c 1
 174.239257812 -188.3203125 l 1
 136.26953125 -187 l 1
 81.9296875 -168.540039062 83.6796875 -91.9501953125 131.509765625 -63.2802734375 c 2
 138.899414062 -58.8505859375 l 1
 80 0 l 1
 80 776.830078125 l 1
 150.6796875 823.91015625 l 1
 210.359375 780.189453125 l 2
 265.379882812 739.870117188 260.620117188 656.319335938 201.389648438 622.5 c 2
 162.459960938 600.279296875 l 1
 315.609375 529.66015625 l 1
 280.26953125 482.580078125 l 1
 138.899414062 557.349609375 l 1
 138.899414062 0 l 1
EndSplineSet
Validated: 33
Ligature2: "'liga' Standard Ligatures in Latin lookup 0-1" D Z W
Ligature2: "'liga' Standard Ligatures in Latin lookup 0-1" D z w
Ligature2: "'liga' Standard Ligatures in Latin lookup 0-1" d z w
EndChar

StartChar: D_Z_Y
Encoding: 314 -1 115
Width: 532
Flags: W
HStem: 803.91 20G<179.56 236.886>
VStem: 138.899 58.9102<0 557.35 621.609 776.83>
LayerCount: 2
Fore
SplineSet
224.509765625 636.620117188 m 2
 271.069335938 662.790039062 272.870117188 729.099609375 227.809570312 757.75 c 2
 197.809570312 776.830078125 l 1
 197.809570312 621.609375 l 1
 224.509765625 636.620117188 l 2
197.809570312 0 m 1
 197.669921875 -34.98046875 l 1
 222.700195312 -55.9501953125 319.75 -98.650390625 398.529296875 -26.560546875 c 1
 433.41015625 11.76953125 l 1
 492.319335938 11.76953125 l 1
 404.559570312 -163.350585938 148.700195312 -127.30078125 92.75 -32.41015625 c 1
 80 0 l 1
 138.899414062 0 l 1
 138.899414062 776.830078125 l 1
 209.58984375 823.91015625 l 1
 269.259765625 780.189453125 l 2
 324.279296875 739.870117188 319.529296875 656.319335938 260.290039062 622.5 c 2
 221.370117188 600.279296875 l 1
 374.509765625 529.66015625 l 1
 339.169921875 482.580078125 l 1
 197.809570312 557.349609375 l 1
 197.809570312 0 l 1
EndSplineSet
Validated: 33
LCarets2: 2 0 0
Ligature2: "'liga' Standard Ligatures in Latin lookup 0-1" D Z Y
Ligature2: "'liga' Standard Ligatures in Latin lookup 0-1" D z y
Ligature2: "'liga' Standard Ligatures in Latin lookup 0-1" d z y
EndChar

StartChar: S_H
Encoding: 379 -1 182
Width: 438
Flags: W
HStem: -0.65918 21G<197.94 246.03> 756.211 20G<194.695 236.551> 756.211 20G<194.695 236.551>
VStem: 186.16 59.4502<-0.635834 14.5492 58.8203 281.24 373.921 776.211>
LayerCount: 2
Fore
SplineSet
334.030273438 179.75 m 0x90
 323.240234375 222.340820312 290.140625 253.090820312 245.680664062 281.240234375 c 1
 245.959960938 58.8203125 l 1
 256.010742188 65.470703125 347.260742188 127.600585938 334.030273438 179.75 c 0x90
186.16015625 764.440429688 m 2
 186.16015625 770.940429688 191.440429688 776.2109375 197.950195312 776.2109375 c 2
 233.30078125 776.2109375 l 2xd0
 239.80078125 776.2109375 245.0703125 770.950195312 245.080078125 764.450195312 c 2
 245.610351562 341.880859375 l 1
 318.540039062 300.540039062 399.190429688 244.690429688 398.209960938 187.700195312 c 0
 396.690429688 98.990234375 258.930664062 8.30078125 246.030273438 0 c 1
 246.030273438 -0.6591796875 l 1
 197.940429688 -0.6298828125 l 2
 191.430664062 -0.619140625 186.16015625 4.650390625 186.16015625 11.140625 c 2
 186.16015625 315.110351562 l 1
 163.600585938 327.100585938 139.740234375 339.30078125 115.48046875 352.490234375 c 0
 101.370117188 360.16015625 80 387.760742188 80 387.760742188 c 1
 80.3701171875 470.880859375 l 1
 80.3701171875 470.880859375 95.0205078125 427.940429688 139.040039062 399.5703125 c 0
 148.400390625 393.530273438 165.310546875 384.810546875 186.16015625 373.920898438 c 1
 186.16015625 764.440429688 l 2
EndSplineSet
Validated: 33
Ligature2: "'liga' Standard Ligatures in Latin lookup 0-1" S H
Ligature2: "'liga' Standard Ligatures in Latin lookup 0-1" S h
Ligature2: "'liga' Standard Ligatures in Latin lookup 0-1" s h
EndChar

StartChar: T_W
Encoding: 396 -1 199
Width: 379
Flags: W
HStem: 756.83 20G<88.5244 157.805> 756.83 20G<88.5244 157.805>
VStem: 80 58.8994<0 694.439>
LayerCount: 2
Fore
SplineSet
138.899414062 0 m 1xa0
 221.370117188 -70.6201171875 l 1
 177.049804688 -82.060546875 l 1
 136.870117188 -97.25 124.779296875 -151.950195312 221.370117188 -164.780273438 c 1
 174.239257812 -188.3203125 l 1
 136.26953125 -187 l 1
 81.9296875 -168.540039062 83.6796875 -91.9501953125 131.509765625 -63.2802734375 c 2
 138.899414062 -58.8505859375 l 1
 80 0 l 1
 80 765.059570312 l 2
 80 771.559570312 85.26953125 776.830078125 91.779296875 776.830078125 c 2
 138.899414062 776.830078125 l 1
 339.169921875 564.969726562 l 1
 292.049804688 541.4296875 l 1
 138.899414062 694.439453125 l 1
 138.899414062 0 l 1xa0
EndSplineSet
Validated: 33
LCarets2: 1 0
Ligature2: "'liga' Standard Ligatures in Latin lookup 0-1" T W
Ligature2: "'liga' Standard Ligatures in Latin lookup 0-1" T w
Ligature2: "'liga' Standard Ligatures in Latin lookup 0-1" t w
EndChar

StartChar: M_W
Encoding: 405 -1 208
Width: 308
Flags: W
HStem: 776.83 47.0801<150.68 196.136>
VStem: 80 58.8994<0 776.83> 209.59 58.8994<553.199 762.311>
LayerCount: 2
Fore
SplineSet
80 776.830078125 m 1
 150.6796875 823.91015625 l 1
 215.75 823.91015625 268.489257812 771.209960938 268.489257812 706.209960938 c 2
 268.489257812 564.969726562 l 2
 268.489257812 558.469726562 263.209960938 553.19921875 256.709960938 553.19921875 c 2
 221.370117188 553.19921875 l 2
 214.859375 553.19921875 209.58984375 558.469726562 209.58984375 564.969726562 c 2
 209.58984375 717.979492188 l 2
 209.58984375 750.479492188 183.209960938 776.830078125 150.6796875 776.830078125 c 2
 138.899414062 776.830078125 l 1
 138.899414062 0 l 1
 221.370117188 -70.6201171875 l 1
 177.049804688 -82.060546875 l 1
 136.870117188 -97.25 124.779296875 -151.950195312 221.370117188 -164.780273438 c 1
 174.239257812 -188.3203125 l 1
 136.26953125 -187 l 1
 81.9296875 -168.540039062 83.6796875 -91.9501953125 131.509765625 -63.2802734375 c 2
 138.899414062 -58.8505859375 l 1
 80 0 l 1
 80 776.830078125 l 1
EndSplineSet
Validated: 33
Ligature2: "'liga' Standard Ligatures in Latin lookup 0-1" M W
Ligature2: "'liga' Standard Ligatures in Latin lookup 0-1" M w
Ligature2: "'liga' Standard Ligatures in Latin lookup 0-1" m w
Ligature2: "'liga' Standard Ligatures in Latin lookup 0-1" B W
Ligature2: "'liga' Standard Ligatures in Latin lookup 0-1" B w
Ligature2: "'liga' Standard Ligatures in Latin lookup 0-1" b w
Ligature2: "'liga' Standard Ligatures in Latin lookup 0-1" F W
Ligature2: "'liga' Standard Ligatures in Latin lookup 0-1" F w
Ligature2: "'liga' Standard Ligatures in Latin lookup 0-1" f w
Ligature2: "'liga' Standard Ligatures in Latin lookup 0-1" P W
Ligature2: "'liga' Standard Ligatures in Latin lookup 0-1" P w
Ligature2: "'liga' Standard Ligatures in Latin lookup 0-1" p w
Ligature2: "'liga' Standard Ligatures in Latin lookup 0-1" V W
Ligature2: "'liga' Standard Ligatures in Latin lookup 0-1" V w
Ligature2: "'liga' Standard Ligatures in Latin lookup 0-1" v w
EndChar

StartChar: M_Y
Encoding: 414 -1 217
Width: 532
Flags: W
HStem: 776.83 47.0801<209.59 255.04>
VStem: 138.899 58.9102<0 776.83> 268.489 58.9004<553.199 762.311>
LayerCount: 2
Fore
SplineSet
138.899414062 776.830078125 m 1
 209.58984375 823.91015625 l 1
 274.649414062 823.91015625 327.389648438 771.209960938 327.389648438 706.209960938 c 2
 327.389648438 564.969726562 l 2
 327.389648438 558.469726562 322.120117188 553.19921875 315.609375 553.19921875 c 2
 280.26953125 553.19921875 l 2
 273.759765625 553.19921875 268.489257812 558.469726562 268.489257812 564.969726562 c 2
 268.489257812 717.979492188 l 2
 268.489257812 750.479492188 242.120117188 776.830078125 209.58984375 776.830078125 c 2
 197.809570312 776.830078125 l 1
 197.809570312 0 l 1
 197.669921875 -34.98046875 l 1
 222.700195312 -55.9501953125 319.75 -98.650390625 398.529296875 -26.560546875 c 1
 433.41015625 11.76953125 l 1
 492.319335938 11.76953125 l 1
 404.559570312 -163.350585938 148.700195312 -127.30078125 92.75 -32.41015625 c 1
 80 0 l 1
 138.899414062 0 l 1
 138.899414062 776.830078125 l 1
EndSplineSet
Validated: 33
Ligature2: "'liga' Standard Ligatures in Latin lookup 0-1" M Y
Ligature2: "'liga' Standard Ligatures in Latin lookup 0-1" M y
Ligature2: "'liga' Standard Ligatures in Latin lookup 0-1" m y
Ligature2: "'liga' Standard Ligatures in Latin lookup 0-1" B Y
Ligature2: "'liga' Standard Ligatures in Latin lookup 0-1" B y
Ligature2: "'liga' Standard Ligatures in Latin lookup 0-1" b y
Ligature2: "'liga' Standard Ligatures in Latin lookup 0-1" F Y
Ligature2: "'liga' Standard Ligatures in Latin lookup 0-1" F y
Ligature2: "'liga' Standard Ligatures in Latin lookup 0-1" f y
Ligature2: "'liga' Standard Ligatures in Latin lookup 0-1" P Y
Ligature2: "'liga' Standard Ligatures in Latin lookup 0-1" P y
Ligature2: "'liga' Standard Ligatures in Latin lookup 0-1" p y
Ligature2: "'liga' Standard Ligatures in Latin lookup 0-1" V Y
Ligature2: "'liga' Standard Ligatures in Latin lookup 0-1" V y
Ligature2: "'liga' Standard Ligatures in Latin lookup 0-1" v y
EndChar

StartChar: N_W
Encoding: 431 -1 242
Width: 355
Flags: W
HStem: 364.88 47.0801<268.489 292.05> 776.83 47.0801<150.68 196.136>
VStem: 80 58.8994<0 776.83> 209.59 58.8994<411.96 762.311>
LayerCount: 2
Fore
SplineSet
80 776.830078125 m 1
 150.6796875 823.91015625 l 1
 215.75 823.91015625 268.489257812 771.209960938 268.489257812 706.209960938 c 2
 268.489257812 411.959960938 l 1
 315.609375 411.959960938 l 1
 292.049804688 364.879882812 l 1
 221.370117188 364.879882812 l 2
 214.859375 364.879882812 209.58984375 370.149414062 209.58984375 376.649414062 c 2
 209.58984375 717.979492188 l 2
 209.58984375 750.479492188 183.209960938 776.830078125 150.6796875 776.830078125 c 2
 138.899414062 776.830078125 l 1
 138.899414062 0 l 1
 221.370117188 -70.6201171875 l 1
 177.049804688 -82.060546875 l 1
 136.870117188 -97.25 124.779296875 -151.950195312 221.370117188 -164.780273438 c 1
 174.239257812 -188.3203125 l 1
 136.26953125 -187 l 1
 81.9296875 -168.540039062 83.6796875 -91.9501953125 131.509765625 -63.2802734375 c 2
 138.899414062 -58.8505859375 l 1
 80 0 l 1
 80 776.830078125 l 1
EndSplineSet
Validated: 33
Ligature2: "'liga' Standard Ligatures in Latin lookup 0-1" N W
Ligature2: "'liga' Standard Ligatures in Latin lookup 0-1" N w
Ligature2: "'liga' Standard Ligatures in Latin lookup 0-1" n w
EndChar

StartChar: N_Y
Encoding: 440 -1 243
Width: 532
Flags: W
HStem: 364.88 47.0801<327.39 350.95> 776.83 47.0801<209.59 255.04>
VStem: 138.899 58.9102<0 776.83> 268.489 58.9004<411.96 762.311>
LayerCount: 2
Fore
SplineSet
138.899414062 776.830078125 m 1
 209.58984375 823.91015625 l 1
 274.649414062 823.91015625 327.389648438 771.209960938 327.389648438 706.209960938 c 2
 327.389648438 411.959960938 l 1
 374.509765625 411.959960938 l 1
 350.950195312 364.879882812 l 1
 280.26953125 364.879882812 l 2
 273.759765625 364.879882812 268.489257812 370.149414062 268.489257812 376.649414062 c 2
 268.489257812 717.979492188 l 2
 268.489257812 750.479492188 242.120117188 776.830078125 209.58984375 776.830078125 c 2
 197.809570312 776.830078125 l 1
 197.809570312 0 l 1
 197.669921875 -34.98046875 l 1
 222.700195312 -55.9501953125 319.75 -98.650390625 398.529296875 -26.560546875 c 1
 433.419921875 11.76953125 l 1
 492.319335938 11.76953125 l 1
 404.559570312 -163.350585938 148.700195312 -127.30078125 92.75 -32.41015625 c 1
 80 0 l 1
 138.899414062 0 l 1
 138.899414062 776.830078125 l 1
EndSplineSet
Validated: 33
Ligature2: "'liga' Standard Ligatures in Latin lookup 0-1" N Y
Ligature2: "'liga' Standard Ligatures in Latin lookup 0-1" N y
Ligature2: "'liga' Standard Ligatures in Latin lookup 0-1" n y
EndChar

StartChar: T_Y
Encoding: 449 -1 252
Width: 532
Flags: W
HStem: 756.83 20G<147.43 216.714> 756.83 20G<147.43 216.714>
VStem: 138.899 58.9102<0 694.439>
LayerCount: 2
Fore
SplineSet
138.899414062 765.059570312 m 2xa0
 138.899414062 771.559570312 144.1796875 776.830078125 150.6796875 776.830078125 c 2
 197.809570312 776.830078125 l 1
 398.069335938 564.969726562 l 1
 350.950195312 541.4296875 l 1
 197.809570312 694.439453125 l 1
 197.809570312 0 l 1
 197.669921875 -34.98046875 l 1
 222.700195312 -55.9501953125 319.75 -98.650390625 398.529296875 -26.560546875 c 1
 433.41015625 11.76953125 l 1
 492.319335938 11.76953125 l 1
 404.559570312 -163.350585938 148.700195312 -127.30078125 92.75 -32.41015625 c 1
 80 0 l 1
 138.899414062 0 l 1
 138.899414062 765.059570312 l 2xa0
EndSplineSet
Validated: 33
Ligature2: "'liga' Standard Ligatures in Latin lookup 0-1" T Y
Ligature2: "'liga' Standard Ligatures in Latin lookup 0-1" T y
Ligature2: "'liga' Standard Ligatures in Latin lookup 0-1" t y
EndChar

StartChar: T_S
Encoding: 458 -1 261
Width: 532
Flags: W
HStem: 0 21G<88.5244 130.375> 756.83 20G<88.5244 157.583 439.63 476.996> 756.83 20G<88.5244 157.583 439.63 476.996>
VStem: 80 58.8994<0 694.439>
LayerCount: 2
Fore
SplineSet
303.830078125 600.279296875 m 1xd0
 456.979492188 776.830078125 l 1
 492.319335938 741.51953125 l 1
 303.830078125 529.659179688 l 1
 138.899414062 694.439453125 l 1
 138.899414062 11.76953125 l 2
 138.899414062 5.26953125 133.629882812 0 127.120117188 0 c 2
 91.779296875 0 l 2
 85.26953125 0 80 5.26953125 80 11.76953125 c 2
 80 765.059570312 l 2
 80 771.559570312 85.26953125 776.830078125 91.779296875 776.830078125 c 2
 138.899414062 776.830078125 l 1
 303.830078125 600.279296875 l 1xd0
EndSplineSet
Validated: 1
Ligature2: "'liga' Standard Ligatures in Latin lookup 0-1" T S
Ligature2: "'liga' Standard Ligatures in Latin lookup 0-1" T s
Ligature2: "'liga' Standard Ligatures in Latin lookup 0-1" t s
EndChar

StartChar: T_S_W
Encoding: 467 -1 270
Width: 532
Flags: W
HStem: 756.83 20G<88.5244 157.583 439.63 476.996> 756.83 20G<88.5244 157.583 439.63 476.996>
VStem: 80 58.8994<0 694.439>
LayerCount: 2
Fore
SplineSet
303.830078125 600.279296875 m 1xa0
 456.979492188 776.830078125 l 1
 492.319335938 741.51953125 l 1
 303.830078125 529.659179688 l 1
 138.899414062 694.439453125 l 1
 138.899414062 0 l 1
 221.370117188 -70.6201171875 l 1
 177.049804688 -82.060546875 l 1
 136.870117188 -97.25 124.779296875 -151.950195312 221.370117188 -164.780273438 c 1
 174.239257812 -188.3203125 l 1
 136.26953125 -187 l 1
 81.9296875 -168.540039062 83.6796875 -91.9501953125 131.509765625 -63.2802734375 c 2
 138.899414062 -58.8505859375 l 1
 80 0 l 1
 80 765.059570312 l 2
 80 771.559570312 85.26953125 776.830078125 91.779296875 776.830078125 c 2
 138.899414062 776.830078125 l 1
 303.830078125 600.279296875 l 1xa0
EndSplineSet
Validated: 33
Ligature2: "'liga' Standard Ligatures in Latin lookup 0-1" T S W
Ligature2: "'liga' Standard Ligatures in Latin lookup 0-1" T s w
Ligature2: "'liga' Standard Ligatures in Latin lookup 0-1" t s w
EndChar

StartChar: T_S_Y
Encoding: 476 -1 279
Width: 591
Flags: W
HStem: 756.83 20G<147.43 216.492 498.531 535.896> 756.83 20G<147.43 216.492 498.531 535.896>
VStem: 138.899 58.7705<0 694.439>
LayerCount: 2
Fore
SplineSet
362.729492188 600.279296875 m 1xa0
 515.879882812 776.830078125 l 1
 551.219726562 741.51953125 l 1
 362.729492188 529.659179688 l 1
 197.809570312 694.439453125 l 1
 197.669921875 -34.98046875 l 1
 222.700195312 -55.9501953125 319.75 -98.650390625 398.529296875 -26.560546875 c 1
 433.41015625 11.76953125 l 1
 492.319335938 11.76953125 l 1
 404.559570312 -163.350585938 148.700195312 -127.30078125 92.75 -32.41015625 c 1
 80 0 l 1
 138.899414062 0 l 1
 138.899414062 765.059570312 l 2
 138.899414062 771.559570312 144.1796875 776.830078125 150.6796875 776.830078125 c 2
 197.809570312 776.830078125 l 1
 362.729492188 600.279296875 l 1xa0
EndSplineSet
Validated: 33
Ligature2: "'liga' Standard Ligatures in Latin lookup 0-1" T S Y
Ligature2: "'liga' Standard Ligatures in Latin lookup 0-1" T s y
Ligature2: "'liga' Standard Ligatures in Latin lookup 0-1" t s y
EndChar

